<?xml version="1.0" encoding="UTF-8"?>
<svg id="Layer_2" data-name="Layer 2" xmlns="http://www.w3.org/2000/svg" viewBox="0 0 595.28 572.86">
  <defs>
    <style>
      .cls-1 {
        fill: #f3ecec;
      }

      .cls-1, .cls-2, .cls-3, .cls-4, .cls-5, .cls-6 {
        stroke-width: 0px;
      }

      .cls-2 {
        fill: #402f51;
      }

      .cls-3 {
        fill: #825b88;
      }

      .cls-4 {
        fill: #421649;
      }

      .cls-5 {
        fill: #000;
      }

      .cls-6 {
        fill: #f1e7ea;
      }
    </style>
  </defs>
  <g id="Layer_1-2" data-name="Layer 1">
    <g>
      <path class="cls-5" d="M.04,572.3C.04,382.22.04,192.14,0,2.06,0,.38.38,0,2.06,0c197.05.04,394.11.04,591.16,0,1.68,0,2.06.38,2.06,2.06-.04,190.08-.04,380.16-.04,570.24-43.16-.37-86.35-.01-129.51-.01-155.21,0-310.48-1.33-465.68.01ZM564.57,285.4c-1.77-73.25-26.74-136.87-78.86-188.92-51.84-51.77-114.93-78.34-188.07-78.69-73.88-.36-137.76,25.97-190.2,78.16-52.03,51.78-78.6,115-78.88,188.22-.29,73.75,26.08,137.51,78.29,189.85,51.95,52.08,115.37,78.59,188.82,78.75,73.64.16,137.24-26.22,189.57-78.22,52.38-52.05,77.5-115.78,79.34-189.16Z"/>
      <path class="cls-1" d="M.04,572.3c155.2-1.35,310.47-.01,465.68-.01,43.17,0,86.35-.36,129.51.01-.1.14.23.47-.22.45-.6-.02-1.19,0-1.79,0-197.05,0-394.11,0-591.16-.03-.66,0-1.52.52-2.02-.42Z"/>
      <path class="cls-2" d="M564.57,285.4c-1.84,73.38-26.95,137.1-79.34,189.16-52.32,51.99-115.92,78.38-189.57,78.22-73.45-.16-136.86-26.67-188.82-78.75-52.22-52.34-78.58-116.11-78.29-189.85.29-73.22,26.86-136.44,78.88-188.22,52.44-52.19,116.32-78.52,190.2-78.16,73.14.36,136.24,26.93,188.07,78.69,52.12,52.05,77.09,115.66,78.86,188.92ZM499.77,284.68c0-11.26-.31-22.07-2.43-33.16-1.94-10.17-4.5-19.78-7.25-29.74-1.62-5.87-3.77-11.31-6.18-16.9-1.54-3.58-4.32-7.4-5.26-11.09-.86-3.38-.66-3.36-2.86-6.32-1.31-1.76-2.26-3.75-3.35-5.65-2.5-4.37-4.83-9.05-7.84-13.1-5.54-7.46-11.23-16.72-18.27-22.64-7.62-6.4-13.64-14.65-21.89-20.63-8.14-5.9-15.95-11.78-24.62-16.88-18.64-10.97-39.28-18.93-60.39-23.68-5.22-1.17-10.78-2.9-16.16-3.02-4.57-.1-9.21.41-13.78-.09-5.53-.6-10.65-1.14-16.29-1.14-4.21,0-7.42,1.18-11.41,1.34-22.6.9-43.98,7.27-65.05,15.38-4.66,1.79-8.6,4.5-13.27,6.13-3.9,1.36-7.34,4.16-10.83,6.39-8.66,5.55-17.49,11.15-25.36,17.88-15.68,13.41-29.23,29.06-40.7,46.15-11.83,17.62-19.87,37.21-26.17,57.41-3.29,10.54-4.72,22.28-6.11,33.23-1.46,11.49-2.22,22.81-.55,34.31,1.72,11.81,2.18,23.5,4.96,35.18,2.47,10.4,5.55,20.82,9.68,30.7,1.86,4.46,4.35,8.45,5.78,13.06,1.25,4.04,4.22,7.49,6.41,11.31,4.96,8.68,10.64,18.47,17.31,25.82,13.4,14.77,26.93,29.19,43.41,40.14,17.97,11.94,37.48,21.75,58.34,27.58,21.59,6.03,43.78,8.31,66.15,7.03,5.84-.33,11.74-.33,17.56-.77,4.89-.37,9.68-1.93,14.47-2.98,11.6-2.55,22.68-5.82,33.71-10.19,5.3-2.1,9.85-5.15,14.94-7.48,1.99-.91,4.14-1.02,6.11-1.97,2.18-1.06,4.15-2.69,6.23-3.95,9.04-5.48,18.27-11.13,26.17-18.2,14.38-12.88,28.29-26.44,38.85-42.88,2.81-4.38,6.11-8.55,8.64-13.1,1.06-1.91,1.77-4.39,3.23-6.05.98-1.11,1.87-.96,2.53-2.39,1.14-2.45,1-5,2.45-7.62,1.17-2.12,2.28-4.26,3.26-6.48,1.92-4.36,3.48-8.93,5-13.44,7.44-21.96,10.84-44.38,10.84-67.51Z"/>
      <path class="cls-4" d="M499.77,284.68c0,23.14-3.4,45.55-10.84,67.51-1.53,4.51-3.08,9.08-5,13.44-.98,2.22-2.08,4.35-3.26,6.48-1.44,2.62-1.31,5.17-2.45,7.62-.66,1.42-1.55,1.27-2.53,2.39-1.46,1.66-2.16,4.14-3.23,6.05-2.53,4.54-5.83,8.71-8.64,13.1-10.55,16.44-24.46,30.01-38.85,42.88-7.9,7.08-17.14,12.72-26.17,18.2-2.07,1.26-4.04,2.89-6.23,3.95-1.97.96-4.12,1.06-6.11,1.97-5.09,2.33-9.64,5.37-14.94,7.48-11.03,4.38-22.11,7.64-33.71,10.19-4.79,1.06-9.58,2.61-14.47,2.98-5.82.44-11.72.44-17.56.77-22.38,1.28-44.57-1-66.15-7.03-20.86-5.83-40.37-15.63-58.34-27.58-16.48-10.96-30.01-25.37-43.41-40.14-6.66-7.34-12.34-17.14-17.31-25.82-2.18-3.82-5.15-7.27-6.41-11.31-1.43-4.61-3.92-8.6-5.78-13.06-4.13-9.88-7.2-20.3-9.68-30.7-2.78-11.68-3.25-23.37-4.96-35.18-1.67-11.49-.91-22.82.55-34.31,1.39-10.95,2.82-22.69,6.11-33.23,6.31-20.2,14.35-39.79,26.17-57.41,11.48-17.1,25.02-32.75,40.7-46.15,7.87-6.72,16.7-12.33,25.36-17.88,3.49-2.23,6.92-5.03,10.83-6.39,4.67-1.63,8.61-4.34,13.27-6.13,21.08-8.11,42.45-14.48,65.05-15.38,3.99-.16,7.21-1.34,11.41-1.34,5.64,0,10.75.54,16.29,1.14,4.57.5,9.21-.02,13.78.09,5.37.12,10.94,1.85,16.16,3.02,21.11,4.75,41.75,12.71,60.39,23.68,8.67,5.1,16.48,10.98,24.62,16.88,8.25,5.98,14.27,14.22,21.89,20.63,7.04,5.92,12.74,15.18,18.27,22.64,3,4.05,5.34,8.72,7.84,13.1,1.09,1.9,2.04,3.89,3.35,5.65,2.2,2.96,2.01,2.94,2.86,6.32.93,3.69,3.72,7.51,5.26,11.09,2.4,5.59,4.56,11.03,6.18,16.9,2.75,9.96,5.3,19.57,7.25,29.74,2.12,11.09,2.43,21.91,2.43,33.16ZM233.29,327.18l.07-.07c.68.25,1.05.05,1-.72,1.11-.11,2.02-.49,2.32-1.71,2.22-.59,12.07-7.66,11.57-9.95.08-.09.18-.15.3-.18.79.27,1.1.02.87-.81l.08-.08c1.08.23,1.99.26,1.61-1.3l.16-.13c.96.16,8.85-5.26,7.88-6.59.04-.07.11-.12.19-.14,2.04-.02,5.69-3.04,6.26-5.17l.06-.05c.79.18,1.53.29,1.19-.94.17-.17.34-.34.51-.5,2.24,1.3,10.87-7.98,12.68-9.52,1.54-1.3,3.37-2.06,3.01-4.14-.25-1.44-2.22-2.83-3.61-2.56-.13-.09-.26-.19-.39-.28.18-1.11-.26-1.51-1.34-1.17l-.14-.13c-.29-2.18-2.16-3.19-3.59-4.31-5.3-4.14-9.99-8.96-15.21-13.18-3.61-2.92-6.78-6.37-10.76-8.83-.18-.46-.53-.71-1.01-.78-.19-1.22-1.17-1.93-2.01-2.54-1.88-1.37-3.29-3.48-5.84-3.82l-.14-.14c-.15-1.82-1.07-2.76-2.96-2.61l-.1-.09c.27-.86-.06-1.08-.86-.81-.11-.03-.2-.1-.26-.2-.51-2.26-2.59-3.13-4.08-4.49-.59-.54-1.15-1.7-2.37-1.05l-.16-.15c.39-1.69-.91-1.66-1.94-1.91l.08-.09-.09.09c-.14-1.14-.6-1.89-1.92-1.62-.12-.02-.21-.08-.29-.18-.07-.43.03-1.05-.22-1.25-2.69-2.23-5.01-4.95-8.32-6.36l-1.03-.77c.19-.85-.12-1.11-.93-.79-.17-.17-.35-.33-.52-.5-1.16-2.76-3.58-4.17-6-5.58-.49-1.21-1.48-1.85-2.63-2.3-2.3-2.83-4.88-5.34-8.08-7.15-1.28-3.6-8.06-7.57-11.07-10.22-1.62-1.42-7.9-8.66-10.23-7.84-.19-.16-.38-.32-.57-.48-.06-1.64-.96-2.28-2.53-2.16-.08-.02-.14-.07-.18-.14-.18-1.97-1.46-2.95-3.2-2.44-.88-.04-1.76-.07-2.65-.11-3.28-3.03-15.83,14.81-14.35,18.26-.08.16-.15.33-.23.49-.91-.26-1.14.03-.72.87-.14.36-.27.72-.41,1.07-3.68,2.07-5.37,9.05-6.97,12.65-2.35,5.28-4.22,10.7-5.95,16.2-3.37,10.72-5.59,21.53-6.87,32.7-2.68,23.43-.03,48.34,7.66,70.62,3.57,10.32,7.85,20.45,13.28,29.94,2.28,3.99,5.71,12.56,9.64,15.05,3.94,2.5,7.87-2.39,10.88-5.06,8.9-7.86,18.25-15.42,27.54-22.82,4.65-3.7,9.08-7.62,13.63-11.44,4.03-3.38,9.33-6.38,12.45-10.67.74-.28,1.64-.36,1.7-1.44,1.75-.41,2.68-2.05,4.23-2.78.67-.32.87-.98.69-1.72.08-.09.18-.16.29-.19.81.32,1.12.07.89-.78ZM274.32,249.15c.26,2.76,7.88,7.63,9.94,9.48,1.34,1.2,4.07,5.22,5.69,2.87,1.31-1.9.08-8.86.08-11.19,0-2.18,1.03-7.98-.64-9.62-1.65-1.61-7.96-.98-10.29-1.08-3.61-.16-7.28-.05-10.9.05-8.56.25,2.32,7.36,5.52,8.92.2.19.4.38.6.58ZM303.82,117.87c-4.31.1-8.63.19-12.94.29-1.67-.33-3.38-1.06-4.9.42-3.54.63-7.12.58-10.7.6-.5-.02-.85.17-.97.68-2.47.58-4.98.76-7.51.68-.73.02-1.61-.35-1.89.77-1.98.8-4.13,1.04-6.17,1.44-2.85.56-5.51,2.05-8.52,1.83-.57-.05-.91.19-1,.76-.82.55-1.74.55-2.67.48-1.01-.56-1.47.03-1.81.87-22.32,8.67-45.45,19.23-62,37.22-.26.09-.6.2-.5.52.06.19.39.29.6.42,3.91.85,7.93.77,11.85.72,3.53-.05,7.07-.12,10.61-.07.77,1.98,14.28,1.01,16.11.35,2.25.01,4.5.02,6.75.03.25.88.98.76,1.62.75,3.39-.02,6.77-.05,10.16-.07,23.68.11,47.37-.15,71.05.44,20.06.51,40.1.86,60.17.91,10.68.03,21.36.07,32.04.09,1.77,0,11.94,1.39,12.43-.8.34-1.53-5.34-6.01-6.53-7.05-13.35-11.69-28.7-21.15-44.91-28.34-8.83-3.92-18.18-7.07-27.6-9.27-4.73-1.1-9.57-1.91-14.37-2.63-4.31-.64-9.23-.05-13.37-1.33-1.49-1.6-3.36-.45-5.04-.7ZM299.08,453.57c34.05,1.19,70.14-12.34,97.27-32.3,1.86-1.37,15.59-10.93,14.62-12.69-.81-1.49-8.45-.67-9.64-.69-4.08-.06-8.17-.1-12.25-.13-16.84-.09-33.68-.2-50.52-.41-33.79-.42-67.59-.41-101.38-.55-16.95-.07-34.68-1.67-51.55-.21-3.44.3-3.19.47-1.1,2.91,2.17,2.53,5.42,4.75,8,6.84,5.42,4.37,11.1,8.42,17.01,12.11,26.83,16.71,57.98,25.22,89.55,25.11ZM276.6,385.17c2.84,0,12.69,1.64,14.58-.66,1.03-1.26.14-5.75.13-7.2-.04-3.31-.08-6.62-.12-9.92-.15-12.96-.35-25.92-.53-38.88-.04-3.22-.08-6.43-.11-9.65-.01-1.54.85-7.2,0-8.35-2.16-2.9-7.36,3.91-9.23,5.42-9.51,7.65-18.84,15.49-28.26,23.25-9.44,7.77-18.81,15.61-28.27,23.36-3.01,2.47-25.68,18.67-24.68,21.4.8,2.18,14.72.76,17.02.76,6.61,0,13.22-.03,19.83-.03,13.22,0,26.44.07,39.65.5ZM313.33,365.63c.25,5.06-.26,10.87.36,16.67.34,3.21.15,3.25,3.47,3.25,24.63.02,49.27.04,73.9.06,1.04,0,2.08-.1,3.11.23.74.24,1.56.29,1.94-.56.38-.86-.51-1.12-.97-1.53-10.09-8.9-20.2-17.77-30.46-26.49-9.68-8.22-19.01-16.86-28.62-25.17-6.97-6.03-14.09-11.89-20.78-18.24-.64-.61-1.35-1.04-2.2-.74-.93.34-.64,1.26-.62,1.95.11,4.69.27,9.38.29,14.06.07,11.92.75,23.83.59,36.5ZM354.84,189.17c0-.3,0-.6,0-.9-13.73,0-27.45,0-41.18,0-2.76,0-2.96.16-2.94,2.87.07,8.2.25,16.4.2,24.6-.01,2.24.65,2.99,2.89,3.02,15.29.21,30.58.47,45.87.85,2.6.06,4.54-.82,6.45-2.42,10.2-8.54,20.45-17.03,30.71-25.5.68-.56,1.42-1.16,1.17-1.97-.26-.85-1.28-.53-2-.53-13.73-.01-27.46,0-41.19,0ZM246.18,187.82c0-.33,0-.66,0-.99-13.35,0-26.7,0-40.06.01-.63,0-1.45-.25-1.79.53-.38.88.33,1.31.92,1.8,1.83,1.53,3.63,3.08,5.43,4.64,8.75,7.62,17.5,15.24,26.25,22.86,1.05.91,2.21,1.4,3.65,1.41,15.3.12,30.59.25,45.89.45,2.14.03,2.91-.74,2.83-2.89-.31-8.56-.51-17.13-.71-25.7-.04-1.64-.73-2.15-2.34-2.14-13.36.05-26.71.03-40.07.03ZM465.22,286.92c.74-19.73-3.21-39.81-9.9-58.33-3-8.3-6.67-16.36-10.93-24.09-2.25-4.09-4.59-8.39-7.47-12.08-3-3.85-4.17-3.01-7.77-.05-27.5,22.6-54.81,45.45-82.24,68.14-7.07,5.85-14.14,11.71-21.17,17.61-1.81,1.52-8.41,5.34-8.76,7.71-.37,2.47,4.15,5.16,5.7,6.5,13.09,11.3,26.09,22.71,39.08,34.13,13.13,11.53,26.35,22.95,39.52,34.43,6.77,5.9,13.51,11.83,20.31,17.69,2.31,1.99,5.27,5.74,8.09,7.02,3.85,1.75,5.39-2.84,7.42-5.85,8.85-13.08,16.32-29.16,21.19-44.17,4.83-14.86,8.44-33.03,6.92-48.66ZM311.12,258.14c.14,0,.27,0,.41,0,0,6.97,9.9-3.92,11.96-5.65,1.81-1.52,13.35-9.94,11.81-11.43-1.24-1.21-7.64-.12-9.2-.1-3.5.02-8.88-1.17-12.14-.38-5.24,1.27-2.84,12.87-2.84,17.57Z"/>
      <path class="cls-6" d="M299.08,453.57c-31.57.11-62.71-8.4-89.55-25.11-5.91-3.68-11.59-7.74-17.01-12.11-2.59-2.08-5.84-4.31-8-6.84-2.09-2.44-2.34-2.61,1.1-2.91,16.87-1.46,34.61.14,51.55.21,33.79.14,67.59.12,101.38.55,16.84.21,33.68.32,50.52.41,4.08.02,8.17.06,12.25.13,1.2.02,8.83-.8,9.64.69.96,1.76-12.76,11.32-14.62,12.69-27.12,19.96-63.22,33.49-97.27,32.3Z"/>
      <path class="cls-3" d="M276.6,385.17c-13.21-.43-26.43-.5-39.65-.5-6.61,0-13.22.02-19.83.03-2.3,0-16.22,1.42-17.02-.76-1-2.72,21.67-18.93,24.68-21.4,9.45-7.75,18.83-15.59,28.27-23.36,9.42-7.76,18.75-15.61,28.26-23.25,1.87-1.5,7.07-8.32,9.23-5.42.86,1.16,0,6.81,0,8.35.03,3.22.07,6.43.11,9.65.17,12.96.37,25.92.53,38.88.04,3.31.08,6.62.12,9.92.02,1.44.91,5.94-.13,7.2-1.89,2.3-11.74.66-14.58.66Z"/>
      <path class="cls-3" d="M313.33,365.63c.16-12.67-.52-24.58-.59-36.5-.03-4.67-.18-9.37-.29-14.06-.02-.69-.32-1.62.62-1.95.85-.3,1.56.12,2.2.74,6.69,6.35,13.81,12.21,20.78,18.24,9.61,8.31,18.94,16.95,28.62,25.17,10.26,8.71,20.37,17.59,30.46,26.49.47.41,1.36.67.97,1.53-.38.85-1.2.81-1.94.56-1.03-.34-2.07-.23-3.11-.23-24.63-.03-49.27-.04-73.9-.06-3.32,0-3.12-.04-3.47-3.25-.62-5.81-.11-11.62-.36-16.67Z"/>
      <path class="cls-6" d="M354.84,189.17c13.73,0,27.46,0,41.19,0,.71,0,1.74-.32,2,.53.25.81-.5,1.41-1.17,1.97-10.26,8.47-20.51,16.96-30.71,25.5-1.91,1.6-3.85,2.49-6.45,2.42-15.29-.38-30.58-.64-45.87-.85-2.25-.03-2.91-.78-2.89-3.02.05-8.2-.13-16.4-.2-24.6-.02-2.72.18-2.88,2.94-2.87,13.73,0,27.45,0,41.18,0,0,.3,0,.6,0,.9Z"/>
      <path class="cls-6" d="M246.18,187.82c13.36,0,26.71.02,40.07-.03,1.61,0,2.31.51,2.34,2.14.2,8.57.4,17.14.71,25.7.08,2.15-.69,2.92-2.83,2.89-15.3-.19-30.59-.33-45.89-.45-1.44-.01-2.6-.5-3.65-1.41-8.75-7.62-17.5-15.24-26.25-22.86-1.8-1.56-3.6-3.12-5.43-4.64-.59-.49-1.3-.92-.92-1.8.34-.78,1.16-.53,1.79-.53,13.35-.01,26.7-.01,40.06-.01,0,.33,0,.66,0,.99Z"/>
      <path class="cls-3" d="M465.22,286.92c1.53,15.63-2.09,33.8-6.92,48.66-4.88,15.01-12.35,31.09-21.19,44.17-2.03,3.01-3.57,7.6-7.42,5.85-2.82-1.29-5.78-5.03-8.09-7.02-6.8-5.87-13.54-11.79-20.31-17.69-13.17-11.48-26.39-22.9-39.52-34.43-12.99-11.41-25.99-22.83-39.08-34.13-1.55-1.34-6.06-4.02-5.7-6.5.35-2.36,6.96-6.19,8.76-7.71,7.03-5.9,14.09-11.76,21.17-17.61,27.44-22.69,54.74-45.53,82.24-68.14,3.6-2.96,4.76-3.81,7.77.05,2.88,3.69,5.21,8,7.47,12.08,4.26,7.73,7.93,15.79,10.93,24.09,6.68,18.52,10.64,38.61,9.9,58.33ZM463.6,274.66c-2.33-18.99-5.59-36.59-13.03-54.4-3.72-8.9-8.43-17.71-13.8-25.73-2.01-3-2.26-4.28-5.38-2.2-3.93,2.63-7.43,6.33-11.08,9.33-26.6,21.9-53.23,43.75-79.66,65.85-3.51,2.93-7.02,5.86-10.52,8.8-2.52,2.12-9.25,5.58-10.66,8.38-1.98,3.93,7.55,9.24,10.76,12.25,11.93,11.19,24.59,21.75,36.95,32.49,12.93,11.24,25.98,22.34,38.86,33.63,7.16,6.28,14.1,12.88,21.43,18.96,3.44,2.85,3.81,3.06,6.66-.53,2.58-3.25,4.71-6.99,6.73-10.61,16.52-29.55,25.42-62.23,22.73-96.22Z"/>
      <path class="cls-3" d="M246.54,125.81c.93.07,1.85.07,2.67-.48.57.06.86-.25,1-.76,3.01.23,5.67-1.27,8.52-1.83,2.04-.4,4.19-.64,6.17-1.44.75.05,1.56.23,1.89-.77,2.53.08,5.04-.1,7.51-.68.59.15.84-.17.97-.68,3.58-.02,7.16.03,10.7-.6,1.65,0,3.34.49,4.9-.42,4.31-.1,8.63-.19,12.94-.29,1.51,1.49,3.35.57,5.04.7,4.14,1.28,9.06.69,13.37,1.33,4.8.71,9.65,1.53,14.37,2.63,9.42,2.19,18.76,5.35,27.6,9.27,16.2,7.19,31.56,16.65,44.91,28.34,1.19,1.04,6.87,5.52,6.53,7.05-.49,2.19-10.66.8-12.43.8-10.68-.01-21.36-.06-32.04-.09-20.07-.05-40.1-.41-60.17-.91-23.68-.6-47.36-.33-71.05-.44-.27-.65-.83-.75-1.45-.74-3.45.03-6.89.04-10.34.06-2.25-.01-4.5-.02-6.75-.03-.23-.34-.58-.45-.96-.45-5.05.03-10.1.07-15.15.1-3.54-.05-7.08.02-10.61.07-3.91.05-7.94.14-11.85-.72-.03-.31-.07-.63-.1-.94,16.55-17.99,39.68-28.55,62-37.22.75.02,1.33-.31,1.81-.87ZM414.07,167.13c-10.6-12.15-25.55-21.73-39.8-29.03-14.81-7.59-30.94-13.43-47.39-16.14-32.18-5.3-64.46-1.89-94.6,10.69-14.74,6.15-28.43,14.58-40.71,24.76-.92.76-7.09,4.97-6.4,6.42.63,1.33,6.1.46,7.33.5,7.73.28,15.48.25,23.21.27,66.12.13,132.24,2.53,198.36,2.53Z"/>
      <path class="cls-3" d="M225.49,334.1c-3.12,4.3-8.41,7.29-12.45,10.67-4.55,3.81-8.98,7.74-13.63,11.44-9.29,7.4-18.64,14.96-27.54,22.82-3.01,2.66-6.93,7.56-10.88,5.06-3.93-2.49-7.36-11.05-9.64-15.05-5.43-9.49-9.71-19.61-13.28-29.94-7.69-22.27-10.35-47.18-7.66-70.62,1.28-11.16,3.5-21.97,6.87-32.7,1.73-5.5,3.6-10.92,5.95-16.2,1.6-3.61,3.29-10.58,6.97-12.65.23.58-.19.96-.42,1.42-2,3.95-4.1,7.85-5.66,12-.28.5-.39,1.02-.27,1.59-2.83,1.52-4.32,10.17-5.28,13.09-1.63,4.95-3.44,10.11-3.88,15.33-.34.71-.33,1.46-.22,2.22-.47.52-.61,1.13-.51,1.81-.58,2.7-1.38,5.38-.93,8.19-1.03.4-.91,1.27-.85,2.11-.56,4.81-.84,9.62-.49,14.46-1.54,1.21-.72,2.86-.82,4.34-.24,1.79-.25,3.58,0,5.37.17,1.76-.75,3.7.84,5.24-.38.74-.21,1.52-.1,2.28-.46.67-.45,1.33.06,1.97,1.2,27.05,10.85,53.31,24.81,76.35,1.32,2.17,3.09,6.2,5.15,7.82,2.25,1.78,2.97.64,5.5-1.33,5.51-4.29,10.71-9.02,16.06-13.5,10.76-9,21.66-17.82,32.51-26.71,1.07-.6,2.05-1.29,2.66-2.4h-.01c1.19-.4,2.16-1.09,2.72-2.26.66-.37,1.56-.45,1.72-1.43.98,0,1.58-.75,2.34-1.17.13.12.25.25.38.37Z"/>
      <path class="cls-3" d="M311.12,258.14c0-4.7-2.4-16.3,2.84-17.57,3.26-.79,8.65.4,12.14.38,1.56-.01,7.96-1.1,9.2.1,1.54,1.49-10.01,9.91-11.81,11.43-2.06,1.73-11.96,12.62-11.96,5.65-.14,0-.27,0-.41,0Z"/>
      <path class="cls-3" d="M274.32,249.15c-.2-.19-.4-.38-.6-.58-.59-1.65-7.73-6.28-6.23-7.8,1.26-1.27,10.91.12,13.02.17,4.41.1,7.4-.7,8.67,3.44,1.38,4.52,0,11.36,0,16.13-3.01-1.29-5.25-3.73-7.7-5.83-1.52-1.29-4.99-5.73-7.16-5.54Z"/>
      <path class="cls-2" d="M274.32,249.15c2.17-.19,5.64,4.24,7.16,5.54,2.45,2.09,4.7,4.54,7.7,5.83,0-4.77,1.38-11.6,0-16.13-1.26-4.14-4.26-3.34-8.67-3.44-2.11-.05-11.77-1.44-13.02-.17-1.49,1.51,5.65,6.14,6.23,7.8-3.2-1.56-14.09-8.67-5.53-8.92,3.61-.1,7.29-.22,10.9-.05,2.33.1,8.65-.53,10.29,1.08,1.67,1.64.64,7.44.64,9.62,0,2.33,1.24,9.29-.08,11.19-1.62,2.35-4.34-1.67-5.69-2.87-2.06-1.84-9.69-6.72-9.94-9.48Z"/>
      <path class="cls-6" d="M144.12,220.35c1.56-4.16,3.67-8.05,5.66-12,.23-.46.65-.83.42-1.42.14-.36.27-.72.41-1.07.43-.13.72-.38.72-.87.08-.16.15-.33.23-.49,2.75-4.28,5.39-8.63,8.3-12.8,1.56-2.23,2.41-5.45,6.05-5.46.88.04,1.76.07,2.65.11.92,1.01,1.99,1.81,3.2,2.44.04.07.1.12.18.14.57,1.03,1.32,1.87,2.53,2.16.19.16.38.32.57.48.91,2.02,3.34,2.62,4.31,4.59-4.13.19-7.62-7.47-11.53-8.55-4.63-1.29-6.5,3.36-8.7,6.61-3.03,4.48-5.44,9.29-8.05,14.01-1.13,2.04-4.87,12.15-6.94,12.13Z"/>
      <path class="cls-3" d="M248,254.72c3.99,2.46,7.15,5.91,10.76,8.83,5.22,4.22,9.91,9.04,15.21,13.18,1.43,1.12,3.3,2.13,3.59,4.31-.48-.18-.96-.36-1.44-.54-.05-.14-.14-.21-.3-.2-.29-.66-.69-1.2-1.46-1.33l.02.02c-.54-1.17-1.56-1.79-2.68-2.29l.02.02c-1.73-2.24-3.91-3.96-6.31-5.42-.12-.13-.24-.27-.36-.4-.29-.66-.7-1.18-1.45-1.32h0c-.55-1.14-1.53-1.8-2.65-2.3l.02.02c-1.75-2.23-3.91-3.97-6.31-5.44-.13-.12-.26-.24-.38-.37-.31-.62-.69-1.18-1.44-1.32h0c-.54-1.23-1.69-1.81-2.71-2.53-.08-.13-.2-.19-.35-.17-.28-1.18-1.72-1.34-2.1-2.43.11-.11.22-.22.34-.33Z"/>
      <path class="cls-3" d="M179.34,196.15c-.97-1.97-3.4-2.57-4.31-4.59,2.32-.81,8.61,6.42,10.23,7.84,3.01,2.65,9.79,6.62,11.07,10.22-.13.14-.27.28-.4.42-1.65-.84-2.64-2.59-4.46-3.2l.03.03c-3.16-3.64-6.81-6.71-10.78-9.44l.02.03c-.23-.7-.69-1.14-1.41-1.31h.01Z"/>
      <path class="cls-3" d="M279.44,282.61c1.39-.27,3.36,1.12,3.61,2.56.36,2.08-1.47,2.84-3.01,4.14-1.82,1.53-10.45,10.81-12.68,9.52.47-.59.93-1.19,1.39-1.78,0,0,.13,0,.13,0l.08-.1c.74-.17,1.16-.7,1.48-1.33.6-.13.97-.51,1.17-1.07,2.16-.91,3.7-2.59,5.24-4.26l.18-.04c.71-.2,1.12-.71,1.41-1.35v.02q4.12-2.54,1.08-6.1c-.04-.05-.05-.14-.08-.2Z"/>
      <path class="cls-3" d="M165.91,186.24c-3.63.01-4.49,3.23-6.05,5.46-2.91,4.17-5.55,8.52-8.3,12.8-1.48-3.45,11.07-21.29,14.35-18.26Z"/>
      <path class="cls-6" d="M248.55,314.55c-.12.02-.22.08-.3.18-.7-.14-1.07.56-1.67.66-.08-1.92,12.32-12.04,14.03-11.67-.43.59-.85,1.18-1.28,1.77-.08.02-.14.07-.19.14-2.91,1.86-5.55,4.04-7.88,6.59,0,0-.16.13-.16.13-.68.26-1.34.54-1.61,1.3,0,0-.08.08-.08.08-.53.01-.79.32-.87.81Z"/>
      <path class="cls-3" d="M246.58,315.39c.6-.1.97-.8,1.67-.66.5,2.29-9.35,9.36-11.57,9.95-.12-.12-.24-.24-.36-.36.56-.54,1.22-1.01,1.45-1.82.37.03.62-.1.72-.48,2.88-1.71,5.34-3.92,7.7-6.27.13-.12.27-.24.4-.36Z"/>
      <path class="cls-6" d="M279.44,282.61c.02.07.03.15.08.2q3.04,3.57-1.08,6.1c-.3-2.17,2.12-1.9,1.27-4.39-.6-1.77-3.34-1.75-3.59-4.04.48.18.96.36,1.44.54,0,0,.14.13.14.13.19.69.63,1.09,1.34,1.17.13.09.26.19.39.28Z"/>
      <path class="cls-2" d="M205.29,165.48c5.05-.03,10.1-.07,15.15-.1.38,0,.73.11.96.45-1.83.67-15.34,1.63-16.12-.35Z"/>
      <path class="cls-6" d="M213.05,224.65c.17.17.35.33.52.5.13.48.45.73.93.79.34.26.68.51,1.03.77-.03.8.66,1.05,1.11,1.51,1.27,1.3,2.94,2.18,3.91,3.78-1.74-.06-2.73-1.48-3.78-2.46-1.82-1.7-4.41-2.74-5.19-5.44.49.18.98.37,1.47.55Z"/>
      <path class="cls-3" d="M220.55,231.99c-.97-1.61-2.64-2.49-3.91-3.78-.45-.46-1.14-.71-1.11-1.51,3.31,1.41,5.63,4.13,8.32,6.36.25.21.16.83.22,1.25-.71.17-1.07-.58-1.68-.65-.14-.12-.29-.24-.43-.35-.15-.47-.45-.78-.95-.89-.15-.14-.3-.29-.46-.43Z"/>
      <path class="cls-3" d="M196.33,209.62c3.2,1.81,5.78,4.32,8.08,7.15-.12.13-.25.26-.37.39-.71-.28-1.05-1.15-1.91-1.18l-.07-.07c-.18-.6-.61-.88-1.2-.98h0c-1.23-2.04-3.58-2.97-4.94-4.9.13-.14.27-.28.4-.42Z"/>
      <path class="cls-3" d="M239.14,247.57c2.55.34,3.96,2.46,5.84,3.82.84.61,1.82,1.32,2.01,2.54-.12.13-.25.26-.37.39-.91-.6-1.65-1.46-2.73-1.81l-.42-.4c-.46-.74-.81-1.61-1.91-1.59l-.12-.12c-.1-1.23-1.23-1.39-2.01-1.92h.02c-.1-.31-.21-.61-.31-.91Z"/>
      <path class="cls-2" d="M228.16,165.86c3.45-.02,6.89-.04,10.34-.06.62,0,1.17.09,1.45.74-3.39.02-6.77.05-10.16.07-.65,0-1.38.13-1.62-.75Z"/>
      <path class="cls-3" d="M251.27,312.23c2.33-2.55,4.97-4.74,7.88-6.59.97,1.33-6.92,6.75-7.88,6.59Z"/>
      <path class="cls-3" d="M259.34,305.5c.43-.59.85-1.18,1.28-1.77,0,0,.16,0,.16,0l.12-.11c.75-.14,1.15-.63,1.38-1.31h-.01c.78-.11,1.17-.7,1.54-1.29h.14s.09-.1.09-.1c.53-.2,1.05-.39,1.58-.59-.57,2.13-4.23,5.15-6.26,5.17Z"/>
      <path class="cls-3" d="M228.38,238.17c1.22-.64,1.78.52,2.37,1.05,1.49,1.36,3.57,2.23,4.08,4.49-.78.18-1.06-.74-1.74-.8-.07-.16-.18-.23-.35-.21-.22-.46-.4-.95-1-1.03-.25-.39-.61-.6-1.05-.69-.23-1.09-1.19-1.43-1.99-1.93l.02-.03c-.11-.28-.22-.57-.33-.85Z"/>
      <path class="cls-6" d="M233.09,242.92c.67.06.95.98,1.74.8.06.1.15.16.26.2.07.5.33.8.86.81,0,0,.1.09.1.09.73,1.16,1.78,1.96,2.96,2.61,0,0,.14.14.14.14.1.3.21.6.31.9-2.83-1.03-4.89-2.96-6.36-5.55Z"/>
      <path class="cls-6" d="M228.38,238.17c.11.28.22.57.33.85-3.06-.66-4.55-3.18-6.33-5.35.62.07.97.82,1.68.65.07.09.17.15.29.17.4.82.83,1.62,1.92,1.62l.09-.09s-.08.09-.08.09c.09,1.2,1.15,1.41,1.94,1.91l.16.15Z"/>
      <path class="cls-3" d="M213.05,224.65c-.49-.18-.98-.37-1.47-.55-.07-.15-.18-.22-.35-.2-.16-.47-.46-.8-.97-.89h0c-.82-1.56-2.55-2.22-3.58-3.56.12-.12.24-.25.36-.37,2.42,1.41,4.84,2.82,6,5.58Z"/>
      <path class="cls-3" d="M232.11,328.15c.17.74-.03,1.41-.69,1.72-1.55.73-2.48,2.37-4.23,2.78-.13-.12-.25-.24-.37-.35.65-.81,1.65-1.3,2.11-2.29.49-.37.99-.75,1.48-1.12.66-.04.93-.97,1.71-.74Z"/>
      <path class="cls-6" d="M265.6,300.33c-.53.2-1.05.39-1.58.59.82-2.21,2.62-3.22,4.73-3.86-.46.59-.93,1.19-1.4,1.78-.17.17-.34.34-.51.5-.56.11-1.1.24-1.19.94l-.06.05Z"/>
      <path class="cls-6" d="M232.11,328.15c-.78-.23-1.05.7-1.71.74,1.05-1.61,1.72-3.64,4.14-3.72-.06.41-.12.82-.18,1.22-.55-.06-.93.1-1,.71,0,0-.07.07-.07.07-.53,0-.79.3-.89.78-.12.03-.22.09-.29.19Z"/>
      <path class="cls-2" d="M308.86,118.57c-1.69-.13-3.54.79-5.04-.7,1.68.25,3.55-.9,5.04.7Z"/>
      <path class="cls-2" d="M290.87,118.16c-1.57.91-3.26.41-4.9.42,1.52-1.47,3.23-.75,4.9-.42Z"/>
      <path class="cls-3" d="M171.75,188.79c-1.21-.63-2.28-1.43-3.2-2.44,1.74-.51,3.02.47,3.2,2.44Z"/>
      <path class="cls-3" d="M239,247.43c-1.18-.65-2.22-1.46-2.96-2.61,1.89-.15,2.81.79,2.96,2.61Z"/>
      <path class="cls-3" d="M174.46,191.08c-1.21-.29-1.96-1.12-2.53-2.16,1.56-.12,2.47.52,2.53,2.16Z"/>
      <path class="cls-3" d="M204.41,216.77c1.16.45,2.15,1.09,2.63,2.3-.12.12-.24.25-.36.37-.88-.76-1.97-1.28-2.65-2.28.12-.13.25-.26.37-.39Z"/>
      <path class="cls-3" d="M234.36,326.39c.06-.41.12-.82.18-1.22.15,0,.26-.05.35-.18.65.15.94-.48,1.43-.67.12.12.24.24.36.36-.3,1.22-1.21,1.6-2.32,1.71Z"/>
      <path class="cls-3" d="M228.22,238.03c-.79-.49-1.85-.71-1.94-1.91,1.03.25,2.33.22,1.94,1.91Z"/>
      <path class="cls-3" d="M226.28,236.11c-1.09,0-1.52-.8-1.92-1.62,1.32-.27,1.79.48,1.92,1.62Z"/>
      <path class="cls-3" d="M249.5,313.67c.27-.77.93-1.05,1.61-1.3.38,1.57-.53,1.54-1.61,1.3Z"/>
      <path class="cls-3" d="M227.19,332.66c-.06,1.08-.96,1.16-1.7,1.44-.13-.12-.25-.25-.38-.37.57-.47,1.13-.95,1.7-1.42.13.12.25.24.38.36Z"/>
      <path class="cls-2" d="M246.54,125.81c-.47.56-1.06.89-1.81.87.34-.84.8-1.42,1.81-.87Z"/>
      <path class="cls-2" d="M266.79,120.54c-.33,1-1.13.82-1.89.77.28-1.11,1.16-.75,1.89-.77Z"/>
      <path class="cls-3" d="M279.04,282.33c-.71-.08-1.16-.48-1.34-1.17,1.08-.34,1.53.06,1.34,1.17Z"/>
      <path class="cls-3" d="M265.66,300.28c.09-.7.64-.83,1.19-.94.34,1.24-.4,1.13-1.19.94Z"/>
      <path class="cls-3" d="M214.5,225.93c-.48-.06-.8-.31-.93-.79.8-.32,1.12-.06.93.79Z"/>
      <path class="cls-2" d="M275.27,119.17c-.12.51-.38.83-.97.68.12-.52.47-.7.97-.68Z"/>
      <path class="cls-3" d="M248.55,314.55c.08-.49.34-.8.87-.81.23.83-.08,1.08-.87.81Z"/>
      <path class="cls-2" d="M250.21,124.57c-.14.51-.43.82-1,.76.09-.58.43-.81,1-.76Z"/>
      <path class="cls-3" d="M151.33,204.99c0,.49-.28.74-.72.87-.42-.83-.19-1.13.72-.87Z"/>
      <path class="cls-3" d="M233.37,327.11c.06-.61.45-.77,1-.71.05.77-.32.96-1,.71Z"/>
      <path class="cls-3" d="M232.41,327.96c.1-.48.36-.78.89-.78.23.85-.08,1.1-.89.78Z"/>
      <path class="cls-2" d="M182.73,163.89c.03.31.07.63.1.94-.21-.14-.55-.24-.6-.42-.1-.32.24-.43.5-.52Z"/>
      <path class="cls-3" d="M235.95,244.73c-.53-.02-.79-.32-.86-.81.8-.27,1.13-.04.86.81Z"/>
      <path class="cls-3" d="M246.99,253.94c.48.07.83.32,1.01.78-.11.11-.22.22-.33.33-.35-.24-.7-.49-1.05-.73.12-.13.25-.26.37-.39Z"/>
      <path class="cls-1" d="M463.6,274.66c2.69,33.99-6.21,66.67-22.73,96.22-2.02,3.62-4.16,7.35-6.73,10.61-2.85,3.6-3.23,3.38-6.66.53-7.33-6.08-14.27-12.68-21.43-18.96-12.88-11.29-25.93-22.39-38.86-33.63-12.35-10.74-25.01-21.29-36.95-32.49-3.21-3.01-12.74-8.31-10.76-12.25,1.41-2.8,8.14-6.26,10.66-8.38,3.5-2.94,7.01-5.86,10.52-8.8,26.43-22.1,53.07-43.95,79.66-65.85,3.65-3,7.14-6.71,11.08-9.33,3.12-2.08,3.37-.8,5.38,2.2,5.37,8.02,10.08,16.83,13.8,25.73,7.44,17.81,10.7,35.4,13.03,54.4Z"/>
      <path class="cls-1" d="M414.07,167.13c-66.11,0-132.24-2.4-198.36-2.53-7.74-.02-15.48.01-23.21-.27-1.23-.04-6.7.82-7.33-.5-.69-1.45,5.48-5.66,6.4-6.42,12.28-10.18,25.98-18.61,40.71-24.76,30.15-12.58,62.42-15.99,94.6-10.69,16.45,2.71,32.58,8.55,47.39,16.14,14.25,7.3,29.2,16.88,39.8,29.03Z"/>
      <path class="cls-1" d="M234.89,324.99c-.08.13-.2.18-.35.18-2.43.08-3.09,2.11-4.14,3.72-.49.37-.99.75-1.48,1.12-2.48,1.09-4.66,2.55-6.15,4.88-.16.98-1.06,1.06-1.72,1.43-1.31.27-2.52.68-2.72,2.27,0,0,.01-.01.01-.01-1.59.02-2.51.78-2.66,2.4-10.85,8.88-21.76,17.7-32.51,26.71-5.35,4.48-10.56,9.21-16.06,13.5-2.53,1.97-3.25,3.11-5.5,1.33-2.05-1.62-3.83-5.65-5.15-7.82-13.96-23.04-23.6-49.3-24.81-76.35.84-.68.83-1.34-.06-1.97-.1-.77-.28-1.54.11-2.28.04-.96.16-1.93.1-2.88-.06-.85.54-2.04-.93-2.35-.25-1.79-.23-3.58.01-5.37,1.9-1.14.62-2.88.82-4.34-.35-4.84-.07-9.66.49-14.46,1.39-.25.9-1.27.85-2.11-.45-2.82.35-5.49.93-8.2,1.33-.28,1.2-.97.51-1.81-.11-.76-.11-1.51.22-2.22,1.53-.28,3.58-11.51,4.31-13.53,1.09-3.01,1.92-6.1,3.05-9.09.59-1.58,2.24-4.01,1.81-5.79-.11-.56-.01-1.09.27-1.59,2.06.02,5.81-10.09,6.94-12.13,2.61-4.72,5.03-9.54,8.05-14.01,2.2-3.26,4.07-7.9,8.7-6.61,3.91,1.09,7.4,8.74,11.53,8.55,0,0-.01,0-.01,0,.04.9.48,1.36,1.41,1.31,0,0-.02-.03-.02-.02-.25,1.94,9.02,9.67,10.78,9.43,0,0-.03-.03-.03-.03,2.07,3.93,5.9,5.82,9.39,8.11,0,0,0,0,0,0-.02.84.57.93,1.2.98,0,0,.07.07.07.07-.09,1.06.66,1.61,1.38,2.09,2.33,1.55,3.95,4.06,6.76,4.94,0,0,0,0,0,0,.01.64.35.92.97.89.16-.02.28.05.35.2.78,2.7,3.37,3.74,5.19,5.44,1.05.98,2.04,2.4,3.78,2.46.15.14.3.29.46.43.02.61.34.9.95.89.14.12.29.24.43.35,1.78,2.17,3.27,4.69,6.33,5.35,0,0-.02.03-.02.03-.09,1.42,1.09,1.53,1.99,1.93.45.08.81.3,1.05.68.01.66.26,1.09,1,1.03.17-.01.29.06.35.21,1.47,2.6,3.53,4.52,6.36,5.55,0,0-.02.01-.02.01-.05,1.39,1.12,1.51,2.01,1.92,0,0,.12.12.12.12.32.91.84,1.57,1.91,1.59.14.13.28.27.42.4,1.36,2.37,3.46,3.85,5.88,4.96.15-.02.27.04.35.17.33,1.45,1.2,2.34,2.71,2.54,0,0,0,0,0,0,.05.91.52,1.36,1.44,1.32.13.12.26.24.38.37,1.57,2.43,3.43,4.53,6.31,5.44,0,0-.02-.02-.02-.02.23,1.52,1.1,2.31,2.65,2.3,0,0,0,0,0,0,.05.92.53,1.36,1.45,1.32.12.13.24.27.36.4,1.47,2.54,3.36,4.6,6.32,5.42,0,0-.02-.02-.03-.02.4,1.35,1.43,1.95,2.68,2.28,0,0-.02-.02-.02-.01.02.96.52,1.39,1.46,1.33.15-.01.25.06.3.2.25,2.29,2.98,2.27,3.59,4.04.85,2.49-1.57,2.22-1.27,4.39,0,0,0-.02,0-.02-.93-.03-1.36.46-1.41,1.35,0,0-.18.04-.18.04-2.35.69-4.07,2.13-5.24,4.26-.2.56-.57.95-1.18,1.07-.94-.06-1.42.41-1.48,1.33l-.08.1s-.13,0-.13,0c-2.1.64-3.91,1.65-4.73,3.86,0,0-.09.11-.09.11,0,0-.14-.01-.14-.01-.96-.09-1.5.31-1.54,1.3,0,0,.01-.01.01-.01-.87,0-1.31.46-1.38,1.31l-.12.11s-.16,0-.16,0c-1.71-.37-14.11,9.75-14.03,11.67-.13.12-.27.24-.4.36-3.17,1.35-5.6,3.61-7.7,6.27-.09.38-.35.51-.72.48-1.34.39-2.4,1.11-2.88,2.49Z"/>
      <path class="cls-6" d="M143.84,221.94c.43,1.78-1.21,4.21-1.81,5.79-1.12,2.99-1.96,6.09-3.05,9.09-.73,2.02-2.78,13.25-4.31,13.53.44-5.22,2.25-10.38,3.88-15.33.96-2.92,2.45-11.57,5.28-13.09Z"/>
      <path class="cls-6" d="M222.77,334.89c1.49-2.33,3.67-3.8,6.15-4.88-.45.99-1.46,1.48-2.11,2.29-.57.47-1.14.95-1.7,1.42-.76.42-1.36,1.18-2.34,1.17Z"/>
      <path class="cls-6" d="M130.85,288.86c1.48.31.87,1.5.93,2.35.07.95-.05,1.92-.1,2.88-1.59-1.53-.67-3.47-.84-5.23Z"/>
      <path class="cls-6" d="M131.68,279.14c-.2,1.46,1.08,3.2-.82,4.34.1-1.48-.73-3.13.82-4.34Z"/>
      <path class="cls-6" d="M215.68,340.98c.15-1.61,1.07-2.38,2.66-2.4-.6,1.11-1.59,1.8-2.66,2.4Z"/>
      <path class="cls-6" d="M218.33,338.6c.2-1.6,1.41-2,2.72-2.27-.56,1.17-1.53,1.86-2.72,2.27Z"/>
      <path class="cls-6" d="M134.46,252.57c.69.84.82,1.53-.51,1.81-.11-.68.03-1.29.51-1.81Z"/>
      <path class="cls-6" d="M133.03,262.57c.05.84.54,1.85-.85,2.11-.06-.84-.17-1.7.85-2.11Z"/>
      <path class="cls-6" d="M131.59,296.37c.89.63.9,1.28.06,1.97-.51-.64-.52-1.3-.06-1.97Z"/>
      <path class="cls-6" d="M271.72,276.72c-2.95-.82-4.84-2.88-6.32-5.42,2.4,1.46,4.59,3.17,6.32,5.42Z"/>
      <path class="cls-6" d="M260.96,267.31c-2.88-.91-4.74-3.01-6.31-5.44,2.4,1.46,4.56,3.21,6.31,5.44Z"/>
      <path class="cls-6" d="M249.77,257.48c-2.42-1.11-4.53-2.6-5.88-4.96,1.08.34,1.82,1.2,2.73,1.81.35.24.7.49,1.05.73.38,1.09,1.83,1.25,2.1,2.43Z"/>
      <path class="cls-6" d="M263.6,269.59c-1.55,0-2.42-.79-2.65-2.3,1.12.5,2.1,1.15,2.65,2.3Z"/>
      <path class="cls-6" d="M252.84,260.19c-1.51-.2-2.38-1.08-2.71-2.54,1.02.72,2.17,1.3,2.71,2.54Z"/>
      <path class="cls-6" d="M274.37,278.98c-1.25-.34-2.29-.94-2.68-2.28,1.12.49,2.14,1.11,2.68,2.28Z"/>
      <path class="cls-6" d="M254.27,261.5c-.92.04-1.4-.41-1.44-1.32.75.15,1.13.7,1.44,1.32Z"/>
      <path class="cls-6" d="M275.82,280.3c-.94.05-1.44-.38-1.46-1.33.78.13,1.17.68,1.46,1.33Z"/>
      <path class="cls-6" d="M265.04,270.9c-.92.04-1.41-.39-1.45-1.32.75.14,1.17.66,1.45,1.32Z"/>
      <path class="cls-6" d="M191.49,206.86c-1.76.23-11.03-7.49-10.78-9.43,3.96,2.72,7.62,5.79,10.78,9.43Z"/>
      <path class="cls-6" d="M200.86,214.95c-3.49-2.29-7.32-4.18-9.39-8.11,1.82.61,2.81,2.36,4.46,3.2,1.35,1.93,3.7,2.86,4.93,4.91Z"/>
      <path class="cls-6" d="M180.74,197.45c-.93.05-1.37-.41-1.41-1.31.72.17,1.18.62,1.41,1.31Z"/>
      <path class="cls-6" d="M271.61,294.55c1.17-2.13,2.89-3.58,5.24-4.26-1.54,1.67-3.07,3.35-5.24,4.26Z"/>
      <path class="cls-6" d="M268.95,296.95c.06-.93.53-1.39,1.48-1.33-.32.63-.74,1.16-1.48,1.33Z"/>
      <path class="cls-6" d="M277.02,290.25c.05-.89.48-1.38,1.41-1.35-.29.64-.7,1.15-1.41,1.35Z"/>
      <path class="cls-6" d="M238.49,322.02c2.1-2.66,4.53-4.92,7.7-6.27-2.36,2.34-4.82,4.56-7.7,6.27Z"/>
      <path class="cls-6" d="M234.89,324.99c.48-1.38,1.54-2.1,2.88-2.49-.23.81-.88,1.28-1.45,1.82-.49.19-.78.82-1.43.67Z"/>
      <path class="cls-6" d="M221.95,233.31c-.6,0-.92-.28-.95-.89.49.11.79.42.95.89Z"/>
      <path class="cls-6" d="M210.27,223.02c-2.81-.88-4.43-3.39-6.76-4.94-.72-.48-1.47-1.03-1.38-2.09.86.03,1.2.9,1.91,1.18.68.99,1.76,1.52,2.65,2.28,1.04,1.35,2.76,2.01,3.58,3.58Z"/>
      <path class="cls-6" d="M202.06,215.92c-.63-.04-1.22-.13-1.2-.98.59.09,1.03.37,1.2.98Z"/>
      <path class="cls-6" d="M241.44,250.41c-.89-.41-2.06-.53-2.01-1.92.77.53,1.91.69,2.01,1.92Z"/>
      <path class="cls-6" d="M243.47,252.11c-1.06-.02-1.59-.68-1.91-1.59,1.1-.02,1.45.85,1.91,1.59Z"/>
      <path class="cls-6" d="M260.89,303.62c.06-.85.51-1.3,1.38-1.31-.23.68-.63,1.18-1.38,1.31Z"/>
      <path class="cls-6" d="M262.25,302.32c.04-.99.59-1.39,1.54-1.3-.38.6-.76,1.18-1.54,1.3Z"/>
      <path class="cls-6" d="M230.68,240.99c-.9-.4-2.08-.51-1.99-1.93.8.51,1.76.84,1.99,1.93Z"/>
      <path class="cls-6" d="M232.74,242.7c-.75.06-.99-.37-1-1.03.6.08.78.57,1,1.03Z"/>
      <path class="cls-6" d="M211.23,223.9c-.62.03-.96-.25-.97-.89.52.09.81.42.97.89Z"/>
    </g>
  </g>
</svg>