<svg xmlns="http://www.w3.org/2000/svg" viewBox="76.5249951171875 8.81001663208005 421.95001220703125 463.54498195648193"> <svg xmlns="http://www.w3.org/2000/svg" xmlns:xlink="http://www.w3.org/1999/xlink" version="1.1" id="Layer_1" x="159.90224195434143" y="78.81001663208005" viewBox="283.318603515625 94.11000061035156 713.3628540039062 835.780029296875" xml:space="preserve" height="299.00000000000006" width="255.2054343042077" preserveAspectRatio="xMinYMin" enable-background="new 0 0 1280 1024" style="overflow: visible;"><linearGradient id="SVGID_1_" gradientUnits="userSpaceOnUse" x1="283.3213" y1="512" x2="996.6788" y2="512" style=""><stop offset="0" style="stop-color: #846A23;"></stop><stop offset="0.2598" style="stop-color: #DCC382;"></stop><stop offset="0.3603" style="stop-color: #BEA562;"></stop><stop offset="0.5" style="stop-color: #D7C48D;"></stop><stop offset="0.6397" style="stop-color: #AB9452;"></stop><stop offset="0.7459" style="stop-color: #9B813C;"></stop><stop offset="0.8554" style="stop-color: #EED696;"></stop><stop offset="0.8793" style="stop-color: #D3BB79;"></stop><stop offset="0.9149" style="stop-color: #B19854;"></stop><stop offset="0.948" style="stop-color: #987F39;"></stop><stop offset="0.9774" style="stop-color: #896F29;"></stop><stop offset="1" style="stop-color: #846A23;"></stop></linearGradient><path class="st0" d="M640,929.89c375.13-122.15,356.53-665.4,356.53-665.4C753.8,258.05,640,94.11,640,94.11  S526.2,258.05,283.47,264.48C283.47,264.48,264.87,807.73,640,929.89z M304.06,284.28C491.42,272.71,600.41,171.87,640,127.02  c39.59,44.85,148.57,145.69,335.93,157.25c-0.49,42.17-5.19,148.57-37.19,262.52C885.36,736.86,784.87,858.37,640,908.08  c-145.14-49.79-245.72-171.63-299.02-362.27C309.17,432.01,304.53,326.28,304.06,284.28z" style="fill: url(#SVGID_1_); fill-opacity: 0;"></path><linearGradient id="SVGID_2_" gradientUnits="userSpaceOnUse" x1="316.6956" y1="520.1652" x2="963.3044" y2="520.1652" style=""><stop offset="0" style="stop-color: #846A23;"></stop><stop offset="0.2598" style="stop-color: #DCC382;"></stop><stop offset="0.3603" style="stop-color: #BEA562;"></stop><stop offset="0.5" style="stop-color: #D7C48D;"></stop><stop offset="0.6397" style="stop-color: #AB9452;"></stop><stop offset="0.7459" style="stop-color: #9B813C;"></stop><stop offset="0.8554" style="stop-color: #EED696;"></stop><stop offset="0.8793" style="stop-color: #D3BB79;"></stop><stop offset="0.9149" style="stop-color: #B19854;"></stop><stop offset="0.948" style="stop-color: #987F39;"></stop><stop offset="0.9774" style="stop-color: #896F29;"></stop><stop offset="1" style="stop-color: #846A23;"></stop></linearGradient><path class="st1" d="M640.01,894.93C778.62,845.76,875.1,727.53,926.8,543.44c29.04-103.42,35.29-200.92,36.5-247.63  c-172.33-14.27-278.22-102.89-323.3-150.41c-45.08,47.52-150.96,136.14-323.31,150.41c1.19,46.46,7.38,143.4,36.25,246.66  C404.57,727.12,501.13,845.68,640.01,894.93z M325.2,303.35c161.95-15.64,264.72-95.3,314.81-146.06  c50.1,50.76,152.87,130.42,314.79,146.06c-1.72,50.1-8.83,141.24-35.96,237.85C868.26,721.3,774.46,837.33,640.01,886.14  c-134.7-48.89-228.59-165.25-279.1-345.9C333.95,443.81,326.9,353.16,325.2,303.35z" style="fill: url(#SVGID_2_); fill-opacity: 0;"></path><linearGradient id="SVGID_3_" gradientUnits="userSpaceOnUse" x1="445.493" y1="558.4882" x2="835.8751" y2="552.0356" style=""><stop offset="0" style="stop-color: #846A23;"></stop><stop offset="0.2598" style="stop-color: #DCC382;"></stop><stop offset="0.3603" style="stop-color: #BEA562;"></stop><stop offset="0.5" style="stop-color: #D7C48D;"></stop><stop offset="0.6397" style="stop-color: #AB9452;"></stop><stop offset="0.7459" style="stop-color: #9B813C;"></stop><stop offset="0.8554" style="stop-color: #EED696;"></stop><stop offset="0.8793" style="stop-color: #D3BB79;"></stop><stop offset="0.9149" style="stop-color: #B19854;"></stop><stop offset="0.948" style="stop-color: #987F39;"></stop><stop offset="0.9774" style="stop-color: #896F29;"></stop><stop offset="1" style="stop-color: #846A23;"></stop></linearGradient><path class="st2" d="M668.39,430.1c-60.29-17.52-62.5-69.03-62.5-69.03c1.58,0.54,12.38,4.96,19.47,23.9  c15.73,39.81,89.39,60.71,89.39,60.71l-0.76-22.27c-2.04,1.03-4.29,1.63-6.73,1.63c-8.14,0-14.77-6.63-14.77-14.78  c0-8.14,6.63-14.77,14.77-14.77c7.38,0,13.45,5.41,14.56,12.46l16.09-31.65l-62.82-29.76h-50.72l-25.47-28.62v1.6h-35.85v16.2h35.85  v10.82h-34.77c-30.81,42.34-8.77,103.12,33.15,110.04c98.76,16.17,118.95,60.79,118.95,60.79  C743.59,470.62,685.87,436.64,668.39,430.1z M670.84,356.48l17.45,8.3c-1.85,2.04-4.54,3.35-7.49,3.35c-5.57,0-10.1-4.53-10.1-10.1  C670.7,357.51,670.75,356.97,670.84,356.48z M685.71,319.49v16.2h-57.86l-14.41-16.2H685.71z M832.12,541.78  c1.59,0.85,1.84,3.03,0.48,4.21l-24.79,21.56c-1.13,0.98-2.86,0.79-3.75-0.41l-9.34-12.63l-117.5,26.73l24.15,26.65L542.88,736.88  l10.61,23.36l39.59-3.1c2.59-0.2,4.94,1.5,5.55,4.02l5.83,23.84c0.81,3.33-1.71,6.55-5.14,6.55h-71.37c-2.33,0-4.38-1.52-5.06-3.75  l-21.95-72.15c0,0,20.19-0.54,32.13-14.36c11.94-13.79,19.65-35.03,19.1-82.28c0,0-40.6,10.88-61.57-18.32  c-20.98-29.2-9.04-62.12,10.34-76.99c19.38-14.87,44.61-32.13,39.29-54.71c-5.32-22.55-47.65-19.51-56.93-11.4l32.78-1.06  c0,0-36.12,40.87-69.55-16.47c0,0,32.65,0,40.62,0c7.95,0,57.58,1.87,64.75,26.02c7.19,24.15-12.46,46.19-40.6,69.28  c-28.14,23.09-12.21,76.99,33.7,63.45c27.35-20.08,59.46-41.93,64.78-48.58c5.32-6.65,18.59-22.82,6.89-44.34  c-6.16-11.34-14.82-26.73-21.63-38.78c0.16,0.05,0.35,0.08,0.52,0.11c89.44,14.68,110.18,53.41,110.83,54.68l4.29,9.47H812.6  L832.12,541.78z M740.69,757.15c2.58-0.2,4.93,1.5,5.54,4.01l5.83,23.87c0.81,3.33-1.71,6.53-5.13,6.53h-70.74  c-2.62,0-4.85-1.93-5.23-4.52l-9.69-66.88c31.19-26.03-2.53-38.94-26.11-44.41l73.91-60.17c29.66,31.55,31.19,58.97,26.7,77.09  c-2.91,11.74-9.88,22.08-19.26,29.71l-17.8,14.49l2.38,23.36L740.69,757.15z M810.31,417.23c1.48-2.01,4.67-0.96,4.67,1.54v45.02  c0,1.43-1.16,2.59-2.59,2.59h-10.15l-70.47,42.49c3.53-11.49,3.35-23.19-0.65-34.44c-1.42-3.99-3.25-7.77-5.39-11.36l66.15-20.85  L810.31,417.23z" style="fill: url(#SVGID_3_);"></path><linearGradient id="SVGID_4_" gradientUnits="userSpaceOnUse" x1="440.8494" y1="277.5509" x2="831.2314" y2="271.0983" style=""><stop offset="0" style="stop-color: #846A23;"></stop><stop offset="0.2598" style="stop-color: #DCC382;"></stop><stop offset="0.3603" style="stop-color: #BEA562;"></stop><stop offset="0.5" style="stop-color: #D7C48D;"></stop><stop offset="0.6397" style="stop-color: #AB9452;"></stop><stop offset="0.7459" style="stop-color: #9B813C;"></stop><stop offset="0.8554" style="stop-color: #EED696;"></stop><stop offset="0.8793" style="stop-color: #D3BB79;"></stop><stop offset="0.9149" style="stop-color: #B19854;"></stop><stop offset="0.948" style="stop-color: #987F39;"></stop><stop offset="0.9774" style="stop-color: #896F29;"></stop><stop offset="1" style="stop-color: #846A23;"></stop></linearGradient><path class="st3" d="M676.81,274.61c3.1,2.32,5.13,6.04,5.13,10.27c0,7.06-5.59,12.76-12.51,12.76c-6.81,0-12.41-5.59-12.51-12.53  c-0.65,6.52-6.06,11.59-12.6,11.59c-6.99,0-12.64-5.78-12.64-12.92c0-2.82,0.92-5.42,2.46-7.55c0.26-0.39,0.56-0.76,0.88-1.11  l12.73-15.02l-23.34-27.65l-23.34,27.65l12.71,15.02c0.25,0.29,0.5,0.58,0.72,0.9l0.03,0.04c1.6,2.15,2.57,4.81,2.57,7.71  c0,7.14-5.64,12.92-12.64,12.92c-6.53,0-11.94-5.07-12.59-11.59c-0.11,6.95-5.7,12.53-12.51,12.53c-6.92,0-12.52-5.7-12.52-12.76  c0-4.22,2.04-7.95,5.14-10.27l-19.88-18.66l10.98,43.72v15.92h122.66v-15.92l10.96-43.72L676.81,274.61z M611.96,260.09l12.44-14.74  l12.44,14.74l-12.44,14.76L611.96,260.09z" style="fill: url(#SVGID_4_);"></path></svg> <svg y="386.8449993133545" viewBox="1.159999966621399 4.289999961853027 145.47999572753906 15.50999927520752" x="214.75999908447267" height="15.50999927520752" width="145.47999572753906" style="overflow: visible;"><g fill="#d9c685" fill-opacity="1" style=""><path d="M7.84 5.29L9.21 5.29L9.21 15.75L7.84 15.75L7.84 11.01L2.52 11.01L2.52 15.75L1.16 15.75L1.16 5.29L2.52 5.29L2.52 9.88L7.84 9.88L7.84 5.29ZM12.24 6.20Q11.85 6.20 11.58 5.93Q11.31 5.66 11.31 5.27L11.31 5.27Q11.31 4.88 11.58 4.61Q11.85 4.34 12.24 4.34L12.24 4.34Q12.61 4.34 12.88 4.61Q13.14 4.88 13.14 5.27L13.14 5.27Q13.14 5.66 12.88 5.93Q12.61 6.20 12.24 6.20L12.24 6.20ZM11.53 7.53L12.90 7.53L12.90 15.75L11.53 15.75L11.53 7.53ZM18.61 7.39Q19.68 7.39 20.48 7.86Q21.28 8.32 21.67 9.03L21.67 9.03L21.67 7.53L23.05 7.53L23.05 15.93Q23.05 17.05 22.57 17.93Q22.09 18.81 21.20 19.30Q20.31 19.80 19.13 19.80L19.13 19.80Q17.50 19.80 16.42 19.04Q15.34 18.27 15.15 16.95L15.15 16.95L16.50 16.95Q16.72 17.70 17.43 18.16Q18.13 18.61 19.13 18.61L19.13 18.61Q20.25 18.61 20.96 17.91Q21.67 17.20 21.67 15.93L21.67 15.93L21.67 14.21Q21.27 14.93 20.47 15.40Q19.68 15.88 18.61 15.88L18.61 15.88Q17.52 15.88 16.63 15.35Q15.73 14.80 15.22 13.83Q14.71 12.86 14.71 11.61L14.71 11.61Q14.71 10.35 15.22 9.40Q15.73 8.45 16.63 7.92Q17.52 7.39 18.61 7.39L18.61 7.39ZM21.67 11.63Q21.67 10.70 21.30 10.00Q20.92 9.32 20.29 8.95Q19.65 8.58 18.88 8.58L18.88 8.58Q18.12 8.58 17.49 8.94Q16.86 9.30 16.48 9.99Q16.11 10.68 16.11 11.61L16.11 11.61Q16.11 12.55 16.48 13.25Q16.86 13.95 17.49 14.32Q18.12 14.69 18.88 14.69L18.88 14.69Q19.65 14.69 20.29 14.32Q20.92 13.95 21.30 13.25Q21.67 12.55 21.67 11.63L21.67 11.63ZM29.44 7.38Q30.37 7.38 31.12 7.78Q31.87 8.18 32.30 8.97Q32.73 9.77 32.73 10.91L32.73 10.91L32.73 15.75L31.38 15.75L31.38 11.10Q31.38 9.87 30.76 9.22Q30.15 8.57 29.08 8.57L29.08 8.57Q28.00 8.57 27.37 9.24Q26.73 9.91 26.73 11.21L26.73 11.21L26.73 15.75L25.36 15.75L25.36 4.65L26.73 4.65L26.73 8.70Q27.13 8.07 27.85 7.72Q28.56 7.38 29.44 7.38L29.44 7.38ZM34.96 4.65L36.33 4.65L36.33 15.75L34.96 15.75L34.96 4.65ZM39.36 6.20Q38.97 6.20 38.70 5.93Q38.43 5.66 38.43 5.27L38.43 5.27Q38.43 4.88 38.70 4.61Q38.97 4.34 39.36 4.34L39.36 4.34Q39.73 4.34 40.00 4.61Q40.26 4.88 40.26 5.27L40.26 5.27Q40.26 5.66 40.00 5.93Q39.73 6.20 39.36 6.20L39.36 6.20ZM38.65 7.53L40.02 7.53L40.02 15.75L38.65 15.75L38.65 7.53ZM45.69 7.53L45.69 8.66L43.96 8.66L43.96 15.75L42.60 15.75L42.60 8.66L41.53 8.66L41.53 7.53L42.60 7.53L42.60 6.95Q42.60 5.56 43.31 4.93Q44.02 4.29 45.60 4.29L45.60 4.29L45.60 5.43Q44.70 5.43 44.33 5.78Q43.96 6.13 43.96 6.95L43.96 6.95L43.96 7.53L45.69 7.53ZM54.78 11.32Q54.78 11.71 54.73 12.15L54.73 12.15L48.16 12.15Q48.24 13.37 49.00 14.05Q49.75 14.73 50.83 14.73L50.83 14.73Q51.72 14.73 52.31 14.32Q52.90 13.90 53.14 13.21L53.14 13.21L54.61 13.21Q54.28 14.40 53.29 15.14Q52.30 15.88 50.83 15.88L50.83 15.88Q49.66 15.88 48.74 15.36Q47.82 14.84 47.29 13.87Q46.77 12.90 46.77 11.63L46.77 11.63Q46.77 10.35 47.28 9.39Q47.79 8.43 48.71 7.91Q49.63 7.39 50.83 7.39L50.83 7.39Q52.00 7.39 52.90 7.91Q53.80 8.41 54.29 9.31Q54.78 10.20 54.78 11.32L54.78 11.32ZM53.37 11.04Q53.37 10.26 53.02 9.70Q52.68 9.14 52.09 8.84Q51.49 8.55 50.77 8.55L50.77 8.55Q49.74 8.55 49.01 9.21Q48.28 9.87 48.18 11.04L48.18 11.04L53.37 11.04ZM56.58 4.65L57.94 4.65L57.94 15.75L56.58 15.75L56.58 4.65ZM67.77 11.32Q67.77 11.71 67.72 12.15L67.72 12.15L61.15 12.15Q61.23 13.37 61.99 14.05Q62.74 14.73 63.82 14.73L63.82 14.73Q64.71 14.73 65.30 14.32Q65.89 13.90 66.13 13.21L66.13 13.21L67.60 13.21Q67.27 14.40 66.28 15.14Q65.29 15.88 63.82 15.88L63.82 15.88Q62.65 15.88 61.73 15.36Q60.81 14.84 60.28 13.87Q59.76 12.90 59.76 11.63L59.76 11.63Q59.76 10.35 60.27 9.39Q60.78 8.43 61.70 7.91Q62.62 7.39 63.82 7.39L63.82 7.39Q64.99 7.39 65.89 7.91Q66.79 8.41 67.28 9.31Q67.77 10.20 67.77 11.32L67.77 11.32ZM66.36 11.04Q66.36 10.26 66.01 9.70Q65.67 9.14 65.08 8.84Q64.48 8.55 63.76 8.55L63.76 8.55Q62.73 8.55 62.00 9.21Q61.27 9.87 61.17 11.04L61.17 11.04L66.36 11.04ZM70.27 6.20Q69.88 6.20 69.61 5.93Q69.34 5.66 69.34 5.27L69.34 5.27Q69.34 4.88 69.61 4.61Q69.88 4.34 70.27 4.34L70.27 4.34Q70.65 4.34 70.91 4.61Q71.17 4.88 71.17 5.27L71.17 5.27Q71.17 5.66 70.91 5.93Q70.65 6.20 70.27 6.20L70.27 6.20ZM69.57 7.53L70.93 7.53L70.93 15.75L69.57 15.75L69.57 7.53ZM76.17 15.88Q75.22 15.88 74.47 15.56Q73.72 15.24 73.29 14.66Q72.85 14.09 72.81 13.34L72.81 13.34L74.22 13.34Q74.28 13.95 74.80 14.34Q75.31 14.73 76.15 14.73L76.15 14.73Q76.93 14.73 77.38 14.38Q77.83 14.04 77.83 13.52L77.83 13.52Q77.83 12.97 77.35 12.71Q76.87 12.45 75.87 12.20L75.87 12.20Q74.95 11.96 74.38 11.71Q73.80 11.46 73.39 10.97Q72.97 10.48 72.97 9.69L72.97 9.69Q72.97 9.06 73.35 8.54Q73.72 8.01 74.41 7.70Q75.10 7.39 75.99 7.39L75.99 7.39Q77.35 7.39 78.19 8.09Q79.03 8.78 79.09 9.98L79.09 9.98L77.73 9.98Q77.68 9.33 77.21 8.94Q76.74 8.55 75.94 8.55L75.94 8.55Q75.21 8.55 74.77 8.87Q74.34 9.18 74.34 9.69L74.34 9.69Q74.34 10.10 74.60 10.36Q74.86 10.62 75.26 10.78Q75.66 10.94 76.36 11.13L76.36 11.13Q77.25 11.37 77.80 11.60Q78.36 11.84 78.76 12.30Q79.15 12.77 79.17 13.52L79.17 13.52Q79.17 14.19 78.79 14.73Q78.42 15.27 77.74 15.58Q77.05 15.88 76.17 15.88L76.17 15.88ZM87.01 7.53L88.38 7.53L88.38 15.75L87.01 15.75L87.01 14.54Q86.62 15.16 85.93 15.52Q85.23 15.87 84.39 15.87L84.39 15.87Q83.43 15.87 82.66 15.47Q81.90 15.07 81.46 14.28Q81.01 13.48 81.01 12.35L81.01 12.35L81.01 7.53L82.36 7.53L82.36 12.16Q82.36 13.38 82.98 14.03Q83.59 14.69 84.66 14.69L84.66 14.69Q85.75 14.69 86.38 14.01Q87.01 13.34 87.01 12.04L87.01 12.04L87.01 7.53ZM92.05 8.87Q92.41 8.16 93.08 7.77Q93.75 7.38 94.71 7.38L94.71 7.38L94.71 8.79L94.35 8.79Q92.05 8.79 92.05 11.28L92.05 11.28L92.05 15.75L90.69 15.75L90.69 7.53L92.05 7.53L92.05 8.87ZM103.78 11.32Q103.78 11.71 103.74 12.15L103.74 12.15L97.17 12.15Q97.24 13.37 98.00 14.05Q98.76 14.73 99.84 14.73L99.84 14.73Q100.72 14.73 101.32 14.32Q101.91 13.90 102.15 13.21L102.15 13.21L103.62 13.21Q103.29 14.40 102.30 15.14Q101.31 15.88 99.84 15.88L99.84 15.88Q98.67 15.88 97.75 15.36Q96.82 14.84 96.30 13.87Q95.77 12.90 95.77 11.63L95.77 11.63Q95.77 10.35 96.28 9.39Q96.79 8.43 97.72 7.91Q98.64 7.39 99.84 7.39L99.84 7.39Q101.01 7.39 101.91 7.91Q102.81 8.41 103.30 9.31Q103.78 10.20 103.78 11.32L103.78 11.32ZM102.37 11.04Q102.37 10.26 102.03 9.70Q101.68 9.14 101.09 8.84Q100.50 8.55 99.78 8.55L99.78 8.55Q98.74 8.55 98.02 9.21Q97.29 9.87 97.18 11.04L97.18 11.04L102.37 11.04ZM106.02 15.84Q105.63 15.84 105.36 15.57Q105.09 15.30 105.09 14.91L105.09 14.91Q105.09 14.52 105.36 14.25Q105.63 13.98 106.02 13.98L106.02 13.98Q106.39 13.98 106.66 14.25Q106.92 14.52 106.92 14.91L106.92 14.91Q106.92 15.30 106.66 15.57Q106.39 15.84 106.02 15.84L106.02 15.84ZM108.22 11.63Q108.22 10.35 108.73 9.40Q109.24 8.45 110.15 7.92Q111.06 7.39 112.23 7.39L112.23 7.39Q113.74 7.39 114.73 8.13Q115.71 8.87 116.02 10.17L116.02 10.17L114.55 10.17Q114.34 9.42 113.74 8.98Q113.13 8.55 112.23 8.55L112.23 8.55Q111.06 8.55 110.34 9.35Q109.62 10.16 109.62 11.63L109.62 11.63Q109.62 13.11 110.34 13.92Q111.06 14.73 112.23 14.73L112.23 14.73Q113.13 14.73 113.73 14.31Q114.33 13.89 114.55 13.11L114.55 13.11L116.02 13.11Q115.69 14.37 114.70 15.13Q113.71 15.88 112.23 15.88L112.23 15.88Q111.06 15.88 110.15 15.36Q109.24 14.84 108.73 13.88Q108.22 12.91 108.22 11.63L108.22 11.63ZM121.42 15.88Q120.27 15.88 119.33 15.36Q118.39 14.84 117.86 13.87Q117.33 12.90 117.33 11.63L117.33 11.63Q117.33 10.37 117.88 9.40Q118.42 8.43 119.37 7.91Q120.31 7.39 121.48 7.39L121.48 7.39Q122.65 7.39 123.60 7.91Q124.54 8.43 125.09 9.39Q125.64 10.35 125.64 11.63L125.64 11.63Q125.64 12.90 125.08 13.87Q124.51 14.84 123.55 15.36Q122.59 15.88 121.42 15.88L121.42 15.88ZM121.42 14.69Q122.16 14.69 122.80 14.34Q123.45 14.00 123.85 13.30Q124.24 12.62 124.24 11.63L124.24 11.63Q124.24 10.63 123.85 9.95Q123.46 9.25 122.83 8.92Q122.20 8.58 121.47 8.58L121.47 8.58Q120.72 8.58 120.10 8.92Q119.47 9.25 119.10 9.95Q118.72 10.63 118.72 11.63L118.72 11.63Q118.72 12.63 119.09 13.32Q119.46 14.01 120.07 14.35Q120.69 14.69 121.42 14.69L121.42 14.69ZM127.87 15.84Q127.48 15.84 127.21 15.57Q126.94 15.30 126.94 14.91L126.94 14.91Q126.94 14.52 127.21 14.25Q127.48 13.98 127.87 13.98L127.87 13.98Q128.25 13.98 128.51 14.25Q128.77 14.52 128.77 14.91L128.77 14.91Q128.77 15.30 128.51 15.57Q128.25 15.84 127.87 15.84L127.87 15.84ZM136.51 7.53L137.88 7.53L137.88 15.75L136.51 15.75L136.51 14.54Q136.12 15.16 135.43 15.52Q134.73 15.87 133.89 15.87L133.89 15.87Q132.93 15.87 132.16 15.47Q131.40 15.07 130.96 14.28Q130.51 13.48 130.51 12.35L130.51 12.35L130.51 7.53L131.86 7.53L131.86 12.16Q131.86 13.38 132.48 14.03Q133.09 14.69 134.16 14.69L134.16 14.69Q135.25 14.69 135.88 14.01Q136.51 13.34 136.51 12.04L136.51 12.04L136.51 7.53ZM146.64 15.75L144.78 15.75L141.55 12.12L141.55 15.75L140.19 15.75L140.19 4.65L141.55 4.65L141.55 11.18L144.72 7.53L146.62 7.53L142.75 11.63L146.64 15.75Z" transform="translate(0, 0)"></path></g></svg> <svg y="346.1550006866455" viewBox="2.0799999237060547 6.529999732971191 281.95001220703125 31.389999389648438" x="146.5249951171875" height="31.389999389648438" width="281.95001220703125" style="overflow: visible;"><g fill="#d9c685" fill-opacity="1" style=""><path d="M6.56 22.56L6.56 31.52L2.08 31.52L2.08 9.11L6.56 9.11L6.56 18.08L15.52 18.08L15.52 9.11L20 9.11L20 31.52L15.52 31.52L15.52 22.56L6.56 22.56ZM28.73 10.23L28.73 10.23Q28.73 10.83 28.51 11.34Q28.28 11.86 27.89 12.24Q27.50 12.63 26.98 12.85Q26.45 13.08 25.86 13.08L25.86 13.08Q25.27 13.08 24.74 12.85Q24.22 12.63 23.84 12.24Q23.45 11.86 23.23 11.34Q23 10.83 23 10.23L23 10.23Q23 9.66 23.23 9.13Q23.45 8.61 23.84 8.23Q24.22 7.84 24.74 7.62Q25.27 7.39 25.86 7.39L25.86 7.39Q26.45 7.39 26.98 7.62Q27.50 7.84 27.89 8.23Q28.28 8.61 28.51 9.13Q28.73 9.66 28.73 10.23ZM28 14.78L28 31.52L23.70 31.52L23.70 14.78L28 14.78ZM43.16 23L43.16 23Q43.16 22.13 42.82 21.30Q42.48 20.48 41.91 19.85Q41.33 19.22 40.55 18.84Q39.78 18.45 38.91 18.45L38.91 18.45Q38.03 18.45 37.26 18.75Q36.48 19.05 35.91 19.63Q35.34 20.20 35.02 21.05Q34.69 21.91 34.69 23L34.69 23Q34.69 24.05 35.02 24.88Q35.34 25.72 35.91 26.31Q36.48 26.91 37.26 27.23Q38.03 27.55 38.91 27.55L38.91 27.55Q39.78 27.55 40.55 27.16Q41.33 26.78 41.91 26.15Q42.48 25.52 42.82 24.70Q43.16 23.88 43.16 23ZM47.45 14.81L47.45 29.41Q47.45 31.17 46.78 32.72Q46.11 34.27 44.95 35.42Q43.78 36.58 42.23 37.25Q40.67 37.92 38.91 37.92L38.91 37.92L36.77 37.89L36.77 33.63L38.88 33.66Q39.88 33.66 40.58 33.40Q41.28 33.14 41.77 32.70Q42.25 32.25 42.54 31.67Q42.83 31.09 43 30.45L43 30.45Q42.75 30.86 42.28 31.12Q41.81 31.38 41.24 31.54Q40.67 31.70 40.05 31.77Q39.44 31.83 38.91 31.83L38.91 31.83Q37.14 31.83 35.59 31.22Q34.03 30.61 32.87 29.48Q31.70 28.34 31.03 26.70Q30.36 25.06 30.36 23L30.36 23Q30.36 21.11 31.03 19.48Q31.70 17.86 32.87 16.67Q34.03 15.48 35.59 14.81Q37.14 14.14 38.91 14.14L38.91 14.14Q39.72 14.14 40.52 14.34Q41.31 14.55 42.06 14.91Q42.81 15.27 43.49 15.75Q44.17 16.23 44.77 16.80L44.77 16.80L46.42 14.81L47.45 14.81ZM54.97 21.95L54.97 31.52L50.70 31.52L50.70 8.13L54.97 8.13L54.97 15.52Q55.73 14.94 56.55 14.70Q57.36 14.45 58.20 14.45L58.20 14.45Q59.75 14.45 61.11 15.04Q62.47 15.63 63.48 16.65Q64.48 17.67 65.07 19.04Q65.66 20.41 65.66 21.95L65.66 21.95L65.66 31.52L61.36 31.52L61.36 21.95L61.39 21.95Q61.39 21.30 61.14 20.71Q60.89 20.13 60.45 19.69Q60.02 19.25 59.44 19Q58.86 18.75 58.20 18.75L58.20 18.75Q57.53 18.75 56.94 19Q56.34 19.25 55.91 19.69Q55.47 20.13 55.22 20.71Q54.97 21.30 54.97 21.95L54.97 21.95ZM72.98 8.13L72.98 31.52L68.69 31.52L68.69 8.13L72.98 8.13ZM81.27 10.23L81.27 10.23Q81.27 10.83 81.04 11.34Q80.81 11.86 80.42 12.24Q80.03 12.63 79.51 12.85Q78.98 13.08 78.39 13.08L78.39 13.08Q77.80 13.08 77.27 12.85Q76.75 12.63 76.37 12.24Q75.98 11.86 75.76 11.34Q75.53 10.83 75.53 10.23L75.53 10.23Q75.53 9.66 75.76 9.13Q75.98 8.61 76.37 8.23Q76.75 7.84 77.27 7.62Q77.80 7.39 78.39 7.39L78.39 7.39Q78.98 7.39 79.51 7.62Q80.03 7.84 80.42 8.23Q80.81 8.61 81.04 9.13Q81.27 9.66 81.27 10.23ZM80.53 14.78L80.53 31.52L76.23 31.52L76.23 14.78L80.53 14.78ZM89.20 19.03L89.20 31.52L84.94 31.52L84.94 19.03L82.86 19.03L82.86 14.78L84.94 14.78L84.94 13.98Q84.94 12.44 85.52 11.08Q86.11 9.72 87.13 8.71Q88.16 7.70 89.52 7.12Q90.88 6.53 92.42 6.53L92.42 6.53L95.63 6.53L95.63 10.78L92.42 10.78Q91.73 10.78 91.15 11.02Q90.56 11.27 90.13 11.70Q89.70 12.13 89.45 12.71Q89.20 13.30 89.20 13.98L89.20 13.98L89.20 14.78L94.44 14.78L94.44 19.03L89.20 19.03ZM110.80 17.78L102.80 27.42Q103.05 27.50 103.30 27.52Q103.55 27.55 103.80 27.55L103.80 27.55Q104.42 27.55 105 27.38Q105.58 27.20 106.09 26.88Q106.59 26.56 106.99 26.10Q107.39 25.64 107.64 25.08L107.64 25.08L110.77 28.22Q110.17 29.06 109.40 29.73Q108.63 30.41 107.73 30.88Q106.83 31.34 105.84 31.59Q104.84 31.83 103.80 31.83L103.80 31.83Q102.03 31.83 100.48 31.17Q98.92 30.52 97.76 29.34Q96.59 28.17 95.92 26.55Q95.25 24.94 95.25 23L95.25 23Q95.25 21.02 95.92 19.38Q96.59 17.73 97.76 16.58Q98.92 15.42 100.48 14.78Q102.03 14.14 103.80 14.14L103.80 14.14Q104.84 14.14 105.84 14.39Q106.84 14.64 107.74 15.11Q108.64 15.58 109.42 16.26Q110.20 16.94 110.80 17.78L110.80 17.78ZM100.02 25.22L104.98 18.63Q104.69 18.52 104.40 18.48Q104.11 18.45 103.80 18.45L103.80 18.45Q102.92 18.45 102.15 18.77Q101.38 19.09 100.80 19.69Q100.23 20.28 99.91 21.12Q99.58 21.95 99.58 23L99.58 23Q99.58 23.23 99.60 23.53Q99.63 23.83 99.68 24.13Q99.73 24.44 99.81 24.72Q99.89 25 100.02 25.22L100.02 25.22ZM138.03 27.03L138.03 31.52L122.34 31.52L122.34 9.11L126.83 9.11L126.83 27.03L138.03 27.03ZM154.14 17.78L146.14 27.42Q146.39 27.50 146.64 27.52Q146.89 27.55 147.14 27.55L147.14 27.55Q147.77 27.55 148.34 27.38Q148.92 27.20 149.43 26.88Q149.94 26.56 150.34 26.10Q150.73 25.64 150.98 25.08L150.98 25.08L154.11 28.22Q153.52 29.06 152.74 29.73Q151.97 30.41 151.07 30.88Q150.17 31.34 149.18 31.59Q148.19 31.83 147.14 31.83L147.14 31.83Q145.38 31.83 143.82 31.17Q142.27 30.52 141.10 29.34Q139.94 28.17 139.27 26.55Q138.59 24.94 138.59 23L138.59 23Q138.59 21.02 139.27 19.38Q139.94 17.73 141.10 16.58Q142.27 15.42 143.82 14.78Q145.38 14.14 147.14 14.14L147.14 14.14Q148.19 14.14 149.19 14.39Q150.19 14.64 151.09 15.11Q151.98 15.58 152.77 16.26Q153.55 16.94 154.14 17.78L154.14 17.78ZM143.36 25.22L148.33 18.63Q148.03 18.52 147.74 18.48Q147.45 18.45 147.14 18.45L147.14 18.45Q146.27 18.45 145.49 18.77Q144.72 19.09 144.15 19.69Q143.58 20.28 143.25 21.12Q142.92 21.95 142.92 23L142.92 23Q142.92 23.23 142.95 23.53Q142.97 23.83 143.02 24.13Q143.08 24.44 143.16 24.72Q143.23 25 143.36 25.22L143.36 25.22ZM161.31 10.23L161.31 10.23Q161.31 10.83 161.09 11.34Q160.86 11.86 160.47 12.24Q160.08 12.63 159.55 12.85Q159.03 13.08 158.44 13.08L158.44 13.08Q157.84 13.08 157.32 12.85Q156.80 12.63 156.41 12.24Q156.03 11.86 155.80 11.34Q155.58 10.83 155.58 10.23L155.58 10.23Q155.58 9.66 155.80 9.13Q156.03 8.61 156.41 8.23Q156.80 7.84 157.32 7.62Q157.84 7.39 158.44 7.39L158.44 7.39Q159.03 7.39 159.55 7.62Q160.08 7.84 160.47 8.23Q160.86 8.61 161.09 9.13Q161.31 9.66 161.31 10.23ZM160.58 14.78L160.58 31.52L156.28 31.52L156.28 14.78L160.58 14.78ZM173.02 31.52L173.02 31.52L163.27 31.52L163.27 27.27L173.02 27.27Q173.45 27.27 173.77 26.95Q174.08 26.64 174.08 26.20L174.08 26.20Q174.08 25.75 173.77 25.61Q173.45 25.47 173.02 25.47L173.02 25.47L168.58 25.47Q167.47 25.47 166.50 25.05Q165.53 24.63 164.81 23.90Q164.09 23.17 163.68 22.20Q163.27 21.23 163.27 20.13L163.27 20.13Q163.27 19.02 163.68 18.05Q164.09 17.08 164.81 16.36Q165.53 15.64 166.50 15.23Q167.47 14.81 168.58 14.81L168.58 14.81L177.22 14.81L177.22 19.06L168.58 19.06Q168.14 19.06 167.83 19.38Q167.52 19.69 167.52 20.13L167.52 20.13Q167.52 20.58 167.83 20.90Q168.14 21.22 168.58 21.22L168.58 21.22L173.02 21.22Q174.11 21.22 175.08 21.59Q176.05 21.95 176.77 22.61Q177.48 23.27 177.91 24.19Q178.33 25.11 178.33 26.20L178.33 26.20Q178.33 27.31 177.91 28.27Q177.48 29.23 176.77 29.96Q176.05 30.69 175.08 31.10Q174.11 31.52 173.02 31.52ZM194.30 31.52L192.89 29.56Q192.38 30.03 191.79 30.45Q191.20 30.86 190.56 31.16Q189.92 31.47 189.24 31.65Q188.56 31.83 187.86 31.83L187.86 31.83Q186.31 31.83 184.95 31.28Q183.59 30.73 182.57 29.73Q181.55 28.72 180.96 27.27Q180.38 25.83 180.38 24.03L180.38 24.03L180.38 14.78L184.63 14.78L184.63 24.03Q184.63 24.88 184.88 25.54Q185.14 26.20 185.58 26.66Q186.02 27.11 186.60 27.34Q187.19 27.58 187.86 27.58L187.86 27.58Q188.52 27.58 189.10 27.27Q189.69 26.97 190.13 26.47Q190.56 25.97 190.81 25.34Q191.06 24.70 191.06 24.03L191.06 24.03L191.06 14.78L195.33 14.78L195.33 31.52L194.30 31.52ZM202.84 22.30L202.84 31.52L198.58 31.52L198.58 14.78L199.61 14.78L201.02 16.77Q202.05 15.83 203.36 15.32Q204.67 14.81 206.08 14.81L206.08 14.81L209.84 14.81L209.84 19.06L206.08 19.06Q205.41 19.06 204.81 19.31Q204.22 19.56 203.78 20Q203.34 20.44 203.09 21.03Q202.84 21.63 202.84 22.30L202.84 22.30ZM226.17 17.78L218.17 27.42Q218.42 27.50 218.67 27.52Q218.92 27.55 219.17 27.55L219.17 27.55Q219.80 27.55 220.38 27.38Q220.95 27.20 221.46 26.88Q221.97 26.56 222.37 26.10Q222.77 25.64 223.02 25.08L223.02 25.08L226.14 28.22Q225.55 29.06 224.77 29.73Q224 30.41 223.10 30.88Q222.20 31.34 221.21 31.59Q220.22 31.83 219.17 31.83L219.17 31.83Q217.41 31.83 215.85 31.17Q214.30 30.52 213.13 29.34Q211.97 28.17 211.30 26.55Q210.63 24.94 210.63 23L210.63 23Q210.63 21.02 211.30 19.38Q211.97 17.73 213.13 16.58Q214.30 15.42 215.85 14.78Q217.41 14.14 219.17 14.14L219.17 14.14Q220.22 14.14 221.22 14.39Q222.22 14.64 223.12 15.11Q224.02 15.58 224.80 16.26Q225.58 16.94 226.17 17.78L226.17 17.78ZM215.39 25.22L220.36 18.63Q220.06 18.52 219.77 18.48Q219.48 18.45 219.17 18.45L219.17 18.45Q218.30 18.45 217.52 18.77Q216.75 19.09 216.18 19.69Q215.61 20.28 215.28 21.12Q214.95 21.95 214.95 23L214.95 23Q214.95 23.23 214.98 23.53Q215 23.83 215.05 24.13Q215.11 24.44 215.19 24.72Q215.27 25 215.39 25.22L215.39 25.22ZM253.41 27.03L253.41 31.52L237.72 31.52L237.72 9.11L242.20 9.11L242.20 27.03L253.41 27.03ZM265.47 31.52L262.23 31.52Q260.69 31.52 259.33 30.93Q257.97 30.34 256.95 29.32Q255.92 28.30 255.34 26.94Q254.75 25.58 254.75 24.03L254.75 24.03L254.75 19.06L252.67 19.06L252.67 14.81L254.75 14.81L254.75 8.13L259 8.13L259 14.81L265.47 14.81L265.47 19.06L259 19.06L259 24.03Q259 24.70 259.25 25.29Q259.50 25.88 259.94 26.31Q260.38 26.75 260.97 27.01Q261.56 27.27 262.23 27.27L262.23 27.27L265.47 27.27L265.47 31.52ZM284.03 8.13L284.03 31.52L283 31.52L281.34 29.22Q280.73 29.77 280.05 30.24Q279.38 30.72 278.63 31.07Q277.88 31.42 277.09 31.63Q276.30 31.83 275.48 31.83L275.48 31.83Q273.72 31.83 272.16 31.16Q270.61 30.50 269.45 29.32Q268.28 28.14 267.61 26.52Q266.94 24.91 266.94 23L266.94 23Q266.94 21.11 267.61 19.48Q268.28 17.86 269.45 16.67Q270.61 15.48 272.16 14.81Q273.72 14.14 275.48 14.14L275.48 14.14Q276.05 14.14 276.65 14.23Q277.25 14.33 277.82 14.54Q278.39 14.75 278.89 15.09Q279.39 15.44 279.73 15.94L279.73 15.94L279.73 8.13L284.03 8.13ZM279.73 23L279.73 23Q279.73 22.13 279.40 21.30Q279.06 20.48 278.48 19.85Q277.91 19.22 277.13 18.84Q276.36 18.45 275.48 18.45L275.48 18.45Q274.61 18.45 273.84 18.77Q273.06 19.08 272.49 19.66Q271.92 20.25 271.59 21.09Q271.27 21.94 271.27 23L271.27 23Q271.27 23.92 271.59 24.75Q271.92 25.58 272.49 26.20Q273.06 26.83 273.84 27.19Q274.61 27.55 275.48 27.55L275.48 27.55Q276.36 27.55 277.13 27.16Q277.91 26.78 278.48 26.15Q279.06 25.52 279.40 24.70Q279.73 23.88 279.73 23Z" transform="translate(0, 0)"></path></g></svg></svg>