<?xml version="1.0" encoding="UTF-8"?>
<svg id="Layer_1" data-name="Layer 1" xmlns="http://www.w3.org/2000/svg" version="1.1" viewBox="0 0 32 32">
  <defs>
    <style>
      .cls-1 {
        fill: #d8d8db;
        stroke-width: 0px;
      }
    </style>
  </defs>
  <path class="cls-1" d="M3,7v10h26v-2h-12v-2h12v-2h-12v-2h12v-2H3ZM5,8c.6,0,1,.4,1,1s-.4,1-1,1-1-.4-1-1,.4-1,1-1M9,8c.6,0,1,.4,1,1s-.4,1-1,1-1-.4-1-1,.4-1,1-1M13,8c.6,0,1,.4,1,1s-.4,1-1,1-1-.4-1-1,.4-1,1-1M7,11c.6,0,1,.4,1,1s-.4,1-1,1-1-.4-1-1,.4-1,1-1M11,11c.6,0,1,.4,1,1s-.4,1-1,1-1-.4-1-1,.4-1,1-1M15,11c.6,0,1,.4,1,1s-.4,1-1,1-1-.4-1-1,.4-1,1-1M5,14c.6,0,1,.4,1,1s-.4,1-1,1-1-.4-1-1,.4-1,1-1M9,14c.6,0,1,.4,1,1s-.4,1-1,1-1-.4-1-1,.4-1,1-1M13,14c.6,0,1,.4,1,1s-.4,1-1,1-1-.4-1-1,.4-1,1-1M3,19v2h26v-2H3ZM3,23v2h26v-2H3Z"/>
</svg>